<svg width="179" height="179" viewBox="0 0 179 179" fill="none" xmlns="http://www.w3.org/2000/svg">
    <path d="M19.6996 157.167C20.4122 160.564 21.6919 163.477 23.5612 165.789C28.6011 172.021 44.297 172.949 56.2668 171.135L56.3069 171.123C50.0268 168.347 44.145 164.842 38.7662 160.709C38.7422 160.691 38.7109 160.683 38.6809 160.687C30.4152 161.687 23.8557 160.521 19.6996 157.167V157.167Z" fill="black"/>
    <path d="M162.503 18.462C162.799 18.7221 163.1 18.9772 163.368 19.2609C168.597 24.8053 168.924 35.4639 164.48 48.9059C164.469 48.9383 164.472 48.9747 164.49 49.004C167.773 54.5136 170.46 60.4192 172.452 66.6375L172.694 66.6447C179.979 48.8423 180.277 31.0656 173.521 23.9007C170.866 21.0858 167.127 19.2717 162.503 18.462Z" fill="black"/>
    <path d="M8.11487 165.676C10.7429 168.464 13.8896 170.638 17.4974 172.198C17.2302 171.912 16.9356 171.653 16.6883 171.347C8.81732 161.613 8.1917 146.885 13.6779 129.871C20.8111 107.749 38.2821 81.7594 63.649 57.8355C68.8075 52.9705 74.0938 48.3887 79.444 44.1189C79.5101 44.0661 79.5034 43.9646 79.4332 43.9171C75.7647 41.4341 72.0959 39.1179 68.4461 36.9934C68.3993 36.9661 68.3413 36.9707 68.2994 37.0051C63.7026 40.7766 59.1122 44.8044 54.5594 49.0981C33.3471 69.1025 16.6745 91.5429 7.52573 112.365C7.43682 112.567 7.33733 112.772 7.24993 112.974C-2.6598 135.86 -2.35249 154.577 8.11487 165.676V165.676Z" fill="black"/>
    <path d="M127.603 15.4C128.348 15.1119 129.096 14.8111 129.835 14.5409C139.755 10.9188 148.76 9.11644 156.562 9.11557C165.583 9.11557 172.976 11.5503 178.36 16.3377C177.131 13.8561 175.57 11.5848 173.657 9.55667C167.556 3.08773 158.81 0 148.298 0C137.448 0 124.716 3.29835 111.077 9.55732C103.262 13.1435 95.1501 17.7044 86.9208 23.1791C86.8446 23.2298 86.8415 23.3425 86.919 23.3912C90.5657 25.6798 94.2419 28.1536 97.9321 30.8045C107.97 24.3362 117.986 19.1215 127.603 15.4V15.4Z" fill="black"/>
    <path d="M138.893 163.738C138.865 163.735 138.836 163.741 138.813 163.757C132.92 167.743 126.499 171.004 119.685 173.438C124.231 174.997 128.605 176.177 132.778 176.975C132.789 176.977 132.8 176.978 132.812 176.978C143.416 176.879 151.951 172.01 155.043 168.733C157.238 166.406 158.696 163.336 159.427 159.656C155.174 163.65 147.997 164.98 138.893 163.738V163.738Z" fill="black"/>
    <path d="M15.878 21.6593C11.2545 22.4686 7.51464 24.2835 4.85846 27.099C-0.0713811 32.3265 -0.724515 47.175 2.49194 62.0334L2.49255 62.0347C3.54174 66.879 5.00175 71.7227 6.86028 76.2362C7.0663 75.1846 7.30123 74.144 7.54477 73.1065C9.12386 66.3932 11.4899 59.9889 14.5447 53.9883C14.5593 53.9596 14.5609 53.9254 14.5501 53.8951C9.50358 39.7301 9.52032 28.2872 15.0428 22.4305C15.3011 22.1568 15.5933 21.9108 15.878 21.6593V21.6593Z" fill="black"/>
    <path d="M172.379 119.114C171.984 118.129 171.595 117.145 171.161 116.144C167.71 108.174 163.144 99.9629 157.64 91.7354C154.911 87.6543 151.949 83.5694 148.776 79.5086C141.494 70.1889 133.107 60.9965 123.851 52.2672C117.771 46.5329 111.624 41.2612 105.485 36.4642C103.509 34.9217 101.536 33.4322 99.5653 31.9894C99.0211 31.5909 98.4762 31.1948 97.9325 30.8043C94.1872 28.1137 90.456 25.6057 86.7555 23.2884C79.084 18.4847 71.5466 14.4976 64.2914 11.3722C51.8026 5.99401 40.1521 3.16931 30.1128 3.16931C19.6025 3.17054 10.8529 6.25784 4.75392 12.727C2.88924 14.7042 1.38987 16.9508 0.173401 19.3918C5.54481 14.6969 12.8879 12.3143 21.8189 12.3137C29.6227 12.3137 38.6244 14.1163 48.5462 17.7387C48.7571 17.8161 48.9718 17.9059 49.1833 17.984C57.8026 21.1851 66.7656 25.6211 75.7925 31.0927C79.5114 33.3473 83.239 35.7747 86.9591 38.3707C87.4511 38.7138 87.9425 39.0625 88.4345 39.4112C90.4504 40.843 92.4639 42.3091 94.4695 43.8337C101.345 49.0593 108.142 54.8182 114.732 61.0334C124.787 70.5155 133.62 80.3296 141.08 90.0909C144.168 94.1315 147.019 98.1622 149.624 102.157C157.02 113.498 162.412 124.541 165.569 134.673C170.83 151.552 169.87 165.893 161.472 174.798C161.321 174.958 161.135 175.118 160.974 175.278C164.554 173.735 167.693 171.607 170.296 168.847C180.305 158.233 180.999 140.643 172.379 119.114H172.379Z" fill="black"/>
    <path d="M6.86036 76.2361C6.85022 76.2877 6.84245 76.34 6.83252 76.3915L6.90805 76.3602C6.89122 76.3195 6.87697 76.2768 6.86036 76.2361Z" fill="black"/>
    <path d="M172.557 66.9671C170.549 60.6105 167.817 54.578 164.462 48.9581C157.806 37.8057 148.686 28.3021 137.855 21.1816C136.222 21.6835 134.567 22.2234 132.867 22.844C131.633 23.2944 130.391 23.7721 129.142 24.2764C117.724 28.8865 114.851 43.7864 123.812 52.231L123.851 52.2674C133.107 60.9961 141.494 70.1885 148.776 79.5082C151.949 83.5697 154.911 87.6539 157.64 91.7356C163.144 99.9625 167.71 108.175 171.16 116.143C171.595 117.145 171.984 118.129 172.379 119.114C175.059 110.815 176.523 101.969 176.523 92.7781C176.523 83.7818 175.128 75.1134 172.557 66.9671L172.557 66.9671Z" fill="black"/>
    <path d="M54.559 49.0977H54.559C61.1634 42.874 59.3995 31.7488 51.0393 28.2191C49.182 27.435 47.3395 26.7087 45.5148 26.0426C43.5235 25.3156 41.5874 24.6871 39.6902 24.1238C29.1884 31.9675 20.568 42.1759 14.5674 53.9439C11.5017 59.9574 9.12776 66.3767 7.54475 73.1067C7.30121 74.1442 7.06628 75.1847 6.86026 76.2364C6.87686 76.277 6.89162 76.3194 6.90823 76.36L6.83259 76.3914C5.80431 81.6976 5.24835 87.1717 5.24835 92.778C5.24835 99.5203 6.05277 106.072 7.52569 112.365C16.6744 91.5425 33.3471 69.1024 54.559 49.0977V49.0977Z" fill="black"/>
    <path d="M111.077 9.55696C104.6 7.99117 97.8439 7.14062 90.8858 7.14062C81.7166 7.14062 72.8932 8.60018 64.6122 11.2684C64.5012 11.3042 64.4895 11.4579 64.5966 11.5043C66.2917 12.2393 68.0022 13.0212 69.726 13.8494C80.8051 19.1727 93.7397 18.3238 104.662 12.686C106.82 11.5722 108.96 10.5288 111.077 9.55696V9.55696Z" fill="black"/>
    <path d="M52.4054 84.1717C49.7147 87.3037 49.7104 92.0781 52.5542 95.0719C61.4465 104.433 74.9967 110.034 89.6239 110.034C102.894 110.034 115.348 105.333 124.189 97.4035C127.562 94.3783 127.577 89.1224 124.584 85.7213C119.774 80.256 114.472 74.7537 108.669 69.2813C107.349 68.0366 106.021 66.8116 104.687 65.6069C94.7366 56.6266 79.5531 56.8096 69.7982 66.0015L69.7126 66.082C63.3079 72.1221 57.5548 78.1776 52.4054 84.1717V84.1717Z" fill="black"/>
    <path d="M154.507 122.706C153.25 119.875 151.822 116.967 150.221 113.997C146.334 106.791 136.863 104.564 130.274 109.425C119.476 117.394 105.658 121.995 91.0361 122.026C76.4145 121.995 62.5941 117.394 51.7962 109.425C45.2082 104.564 35.7369 106.791 31.85 113.997C30.2484 116.967 28.8203 119.875 27.5633 122.706C22.5122 134.09 25.3908 147.538 34.5727 155.951C36.4054 157.632 38.3116 159.233 40.2851 160.751C45.6744 164.896 51.5691 168.412 57.8636 171.194C68.0122 175.681 79.2051 178.206 90.9657 178.407V178.416C90.9897 178.415 91.0121 178.412 91.0361 178.412C91.0593 178.412 91.0809 178.415 91.1048 178.416V178.407C102.865 178.206 114.058 175.681 124.207 171.194C130.501 168.412 136.396 164.896 141.785 160.751C143.759 159.233 145.665 157.632 147.498 155.951C156.681 147.538 159.559 134.09 154.507 122.706V122.706Z" fill="black"/>
</svg>