<svg class="icon" xmlns="http://www.w3.org/2000/svg">
    <g id="icon-plus" stroke="none" stroke-width="1" fill="none" fill-rule="evenodd">
        <rect fill="currentColor" x="4" y="11" width="16" height="2" rx="1"/>
        <rect fill="currentColor" transform="translate(12.000000, 12.000000) rotate(-270.000000) translate(-12.000000, -12.000000) " x="4" y="11" width="16" height="2" rx="1"/>
    </g>
    <g id="icon-open-in-tab" fill="none" xmlns="http://www.w3.org/2000/svg">
        <path d="M13.25 3C13.25 2.58579 13.5858 2.25 14 2.25H21C21.4142 2.25 21.75 2.58579 21.75 3V10C21.75 10.4142 21.4142 10.75 21 10.75C20.5858 10.75 20.25 10.4142 20.25 10V3.75H14C13.5858 3.75 13.25 3.41421 13.25 3Z" fill="currentColor"/>
        <path d="M4.5 3.75C4.08579 3.75 3.75 4.08579 3.75 4.5V19.5C3.75 19.9142 4.08578 20.25 4.5 20.25H19.5C19.9142 20.25 20.25 19.9142 20.25 19.5V14.7368C20.25 14.3226 20.5858 13.9868 21 13.9868C21.4142 13.9868 21.75 14.3226 21.75 14.7368V19.5C21.75 20.7427 20.7427 21.75 19.5 21.75H4.5C3.25737 21.75 2.25 20.7427 2.25 19.5V4.5C2.25 3.25736 3.25736 2.25 4.5 2.25H9C9.41421 2.25 9.75 2.58579 9.75 3C9.75 3.41421 9.41421 3.75 9 3.75H4.5Z" fill="currentColor"/>
        <path d="M21.0803 2.91966C21.3732 3.21256 21.3732 3.68743 21.0803 3.98032L13.4303 11.6303C13.1374 11.9232 12.6626 11.9232 12.3697 11.6303C12.0768 11.3374 12.0768 10.8626 12.3697 10.5697L20.0197 2.91967C20.3126 2.62677 20.7874 2.62677 21.0803 2.91966Z" fill="currentColor"/>
    </g>
    <g id="icon-checkmark" fill="none" xmlns="http://www.w3.org/2000/svg">
        <path fill-rule="evenodd" clip-rule="evenodd" d="M22.0316 4.97094C22.3238 5.26454 22.3227 5.73941 22.0291 6.0316L8.96656 19.0316C8.67396 19.3228 8.20104 19.3228 7.90844 19.0316L1.97094 13.1225C1.67735 12.8303 1.67621 12.3554 1.9684 12.0618C2.26059 11.7682 2.73546 11.7671 3.02906 12.0593L8.4375 17.4419L20.9709 4.9684C21.2645 4.67621 21.7394 4.67735 22.0316 4.97094Z" fill="currentColor"/>
    </g>
    <g id="icon-checkmark-circle" fill="none" xmlns="http://www.w3.org/2000/svg">
        <path d="M9 16.875C6.91142 16.875 4.90838 16.0453 3.43153 14.5685C1.95468 13.0916 1.125 11.0886 1.125 9C1.125 6.91142 1.95468 4.90838 3.43153 3.43153C4.90838 1.95468 6.91142 1.125 9 1.125C11.0886 1.125 13.0916 1.95468 14.5685 3.43153C16.0453 4.90838 16.875 6.91142 16.875 9C16.875 11.0886 16.0453 13.0916 14.5685 14.5685C13.0916 16.0453 11.0886 16.875 9 16.875ZM9 18C11.3869 18 13.6761 17.0518 15.364 15.364C17.0518 13.6761 18 11.3869 18 9C18 6.61305 17.0518 4.32387 15.364 2.63604C13.6761 0.948212 11.3869 0 9 0C6.61305 0 4.32387 0.948212 2.63604 2.63604C0.948212 4.32387 0 6.61305 0 9C0 11.3869 0.948212 13.6761 2.63604 15.364C4.32387 17.0518 6.61305 18 9 18Z" fill="currentColor"/>
        <path d="M12.3413 5.5912C12.3333 5.59897 12.3257 5.60723 12.3188 5.61595L8.41164 10.5941L6.05701 8.23832C5.89707 8.08928 5.68552 8.00815 5.46693 8.012C5.24834 8.01586 5.03978 8.10441 4.88519 8.259C4.7306 8.41359 4.64205 8.62215 4.63819 8.84074C4.63434 9.05933 4.71547 9.27088 4.86451 9.43082L7.84126 12.4087C7.92146 12.4887 8.01695 12.5518 8.12205 12.5942C8.22714 12.6365 8.33969 12.6572 8.45298 12.6551C8.56626 12.653 8.67797 12.6281 8.78142 12.5819C8.88488 12.5357 8.97797 12.4692 9.05514 12.3862L13.5461 6.77245C13.6991 6.61195 13.7827 6.39771 13.7789 6.17605C13.7751 5.95439 13.6843 5.74313 13.526 5.58793C13.3676 5.43273 13.1546 5.34607 12.9329 5.34668C12.7112 5.34729 12.4987 5.43513 12.3413 5.5912Z" fill="currentColor"/>
    </g>
    <g id="icon-edit" fill="none" xmlns="http://www.w3.org/2000/svg">
        <path d="M2.75 21C2.75 20.5858 3.08579 20.25 3.5 20.25H21.5C21.9142 20.25 22.25 20.5858 22.25 21C22.25 21.4142 21.9142 21.75 21.5 21.75H3.5C3.08579 21.75 2.75 21.4142 2.75 21Z" fill="currentColor"/>
        <path d="M15.8474 2.25C16.0464 2.24996 16.2373 2.32903 16.378 2.46979L20.0304 6.12384C20.3232 6.4167 20.3232 6.8914 20.0304 7.18426L9.68905 17.5302C9.54838 17.6709 9.35757 17.75 9.1586 17.75H5.5C5.08579 17.75 4.75 17.4142 4.75 17V13.36C4.75 13.1612 4.82889 12.9706 4.96935 12.8299L15.3169 2.46999C15.4575 2.32918 15.6484 2.25004 15.8474 2.25ZM15.8478 4.06109L6.25 13.6703V16.25H8.84784L18.4396 6.65405L15.8478 4.06109Z" fill="currentColor"/>
    </g>
    <g id="icon-trash" fill="none" xmlns="http://www.w3.org/2000/svg">
        <path d="M3.75 5C3.75 4.58579 4.08579 4.25 4.5 4.25H19.5C19.9142 4.25 20.25 4.58579 20.25 5V22C20.25 22.4142 19.9142 22.75 19.5 22.75H4.5C4.08579 22.75 3.75 22.4142 3.75 22V5ZM5.25 5.75V21.25H18.75V5.75H5.25Z" fill="currentColor"/>
        <path d="M10 9.25C10.4142 9.25 10.75 9.58579 10.75 10V16.5C10.75 16.9142 10.4142 17.25 10 17.25C9.58579 17.25 9.25 16.9142 9.25 16.5V10C9.25 9.58579 9.58579 9.25 10 9.25Z" fill="currentColor"/>
        <path d="M14 9.25C14.4142 9.25 14.75 9.58579 14.75 10V16.5C14.75 16.9142 14.4142 17.25 14 17.25C13.5858 17.25 13.25 16.9142 13.25 16.5V10C13.25 9.58579 13.5858 9.25 14 9.25Z" fill="currentColor"/>
        <path d="M1.25 5C1.25 4.58579 1.58579 4.25 2 4.25H22C22.4142 4.25 22.75 4.58579 22.75 5C22.75 5.41421 22.4142 5.75 22 5.75H2C1.58579 5.75 1.25 5.41421 1.25 5Z" fill="currentColor"/>
        <path d="M8.98683 1.63949C9.11849 1.39931 9.3706 1.25 9.6445 1.25H14.3885C14.6647 1.25 14.9186 1.40179 15.0493 1.6451L16.6607 4.6451C16.7856 4.87753 16.7791 5.15847 16.6437 5.38492C16.5083 5.61136 16.2638 5.75 16 5.75H8C7.73502 5.75 7.4897 5.61017 7.35468 5.38217C7.21965 5.15418 7.21496 4.87185 7.34233 4.63949L8.98683 1.63949ZM10.0887 2.75L9.26642 4.25H14.7458L13.9401 2.75H10.0887Z" fill="currentColor"/>
    </g>
    <g id="icon-internet-not-available" fill="none" xmlns="http://www.w3.org/2000/svg">
        <path d="M30.6633 56.1296C45.262 56.1296 57.0966 44.295 57.0966 29.6962C57.0966 15.0975 45.262 3.26294 30.6633 3.26294C16.0646 3.26294 4.22998 15.0975 4.22998 29.6962C4.22998 44.295 16.0646 56.1296 30.6633 56.1296Z" fill="#263238"/>
        <path d="M51.5884 25.5525L49.7155 27.4L48.6815 28.4678C46.3197 26.0988 43.5135 24.2192 40.4238 22.9367C37.3342 21.6543 34.0218 20.9941 30.6766 20.9941C27.3313 20.9941 24.0189 21.6543 20.9293 22.9367C17.8397 24.2192 15.0335 26.0988 12.6716 28.4678L11.6631 27.4169L9.81552 25.5609H9.76465V25.5101L9.90025 25.3999C10.6884 24.705 11.4512 23.9761 12.2648 23.3066C13.9393 21.9354 15.7716 20.7689 17.7226 19.8319C20.011 18.6882 22.4466 17.8668 24.9602 17.3911C26.1637 17.1707 27.3756 17.0606 28.579 16.9165C28.9943 16.8657 31.6639 16.8572 31.7486 16.8572C32.5961 16.925 33.3928 16.9589 34.2148 17.0436C36.4852 17.3031 38.7161 17.8352 40.8592 18.6284C42.4117 19.2043 43.914 19.9072 45.3509 20.7302C46.8698 21.5991 48.3053 22.6062 49.6392 23.7388C50.3087 24.3151 50.9528 24.9168 51.6139 25.5101L51.5884 25.5525Z" fill="white"/>
        <path d="M18.5707 34.341L15.6299 31.4087C18.854 28.1242 23.0785 26.0045 27.6389 25.383C34.6222 24.4338 40.6225 26.5526 45.6989 31.3663L42.7497 34.3156C39.5455 31.1116 35.1999 29.3116 30.6686 29.3116C26.1374 29.3116 21.7918 31.1116 18.5876 34.3156L18.5707 34.341Z" fill="white"/>
        <path d="M39.7831 37.2819L36.8169 40.2227C36.0058 39.4078 35.0417 38.7613 33.98 38.32C32.9183 37.8788 31.7799 37.6517 30.6302 37.6517C29.4805 37.6517 28.3421 37.8788 27.2804 38.32C26.2187 38.7613 25.2546 39.4078 24.4435 40.2227L21.562 37.3073C22.7526 36.1019 24.1703 35.1443 25.7331 34.49C27.296 33.8356 28.973 33.4975 30.6673 33.4951C32.3616 33.4928 34.0395 33.8262 35.6042 34.4762C37.1688 35.1262 38.5892 36.0798 39.7831 37.2819Z" fill="white"/>
        <path d="M33.3077 42.8834C33.3077 43.408 33.1522 43.9209 32.8607 44.3571C32.5692 44.7933 32.1549 45.1333 31.6702 45.3341C31.1855 45.5349 30.6521 45.5874 30.1376 45.4851C29.623 45.3827 29.1504 45.1301 28.7794 44.7591C28.4084 44.3881 28.1558 43.9154 28.0534 43.4009C27.9511 42.8863 28.0036 42.353 28.2044 41.8682C28.4051 41.3835 28.7451 40.9692 29.1813 40.6778C29.6176 40.3863 30.1305 40.2307 30.6551 40.2307C31.3586 40.2307 32.0333 40.5102 32.5308 41.0077C33.0283 41.5051 33.3077 42.1798 33.3077 42.8834Z" fill="white"/>
        <path d="M31.546 59.4516V59.0279C32.1053 59.0279 32.6731 58.9855 33.2409 58.9347V59.3584C32.6816 59.4008 32.1138 59.4347 31.546 59.4516ZM29.851 59.4516C29.2831 59.4516 28.7153 59.3754 28.156 59.3161L28.1983 58.8923C28.7492 58.9516 29.3086 58.994 29.8933 59.0279L29.851 59.4516ZM34.9359 59.1889L34.8766 58.7737C35.4275 58.6889 35.9868 58.5957 36.5292 58.4855L36.614 58.9008C36.0546 58.9855 35.4868 59.0872 34.9274 59.1635L34.9359 59.1889ZM26.461 59.1042C25.9016 59.0194 25.3423 58.9177 24.766 58.816L24.8508 58.4008C25.3932 58.5025 25.944 58.6042 26.5034 58.6804L26.461 59.1042ZM38.2581 58.5109L38.1479 58.1041C38.6903 57.9601 39.2242 57.8075 39.7582 57.6295L39.8853 58.0363C39.3598 58.1804 38.8005 58.3414 38.2581 58.4855V58.5109ZM23.1388 58.4431C22.5795 58.2991 22.0286 58.1465 21.5032 57.9855L21.6218 57.5787C22.1473 57.7397 22.6897 57.8923 23.2405 58.0279L23.1388 58.4431ZM41.4871 57.46L41.3345 57.0702C41.8515 56.8668 42.3684 56.6464 42.8769 56.4176L43.0464 56.799C42.5379 57.0193 42.0125 57.2312 41.4871 57.4346V57.46ZM19.8929 57.46C19.359 57.2566 18.8251 57.0448 18.3166 56.8244L18.4776 56.4346C18.9861 56.6549 19.5116 56.8668 20.037 57.0617L19.8929 57.46ZM16.7742 56.1125C16.2657 55.8583 15.7656 55.5871 15.2741 55.3074L15.4859 54.9345C15.969 55.2142 16.4606 55.4769 16.9606 55.7312L16.7742 56.1125ZM44.5719 56.0617L44.377 55.6803C44.8686 55.4261 45.3601 55.1464 45.8262 54.8328L46.0466 55.1972C45.572 55.4769 45.0719 55.7566 44.5719 56.0278V56.0617ZM13.8334 54.3667C13.3588 54.0531 12.8926 53.7226 12.4434 53.3836L12.6977 53.0531C13.1469 53.3836 13.6045 53.7056 14.0706 54.0107L13.8334 54.3667ZM47.4788 54.2565L47.2415 53.909C47.6992 53.5955 48.1484 53.2649 48.5891 52.9259L48.8518 53.2565C48.4026 53.6294 47.9449 53.9514 47.4788 54.265V54.2565ZM11.1214 52.3242C10.6891 51.9598 10.2739 51.5784 9.85861 51.1801L10.1552 50.875C10.5536 51.2649 11.0027 51.6462 11.3926 52.0022L11.1214 52.3242ZM50.1654 52.1802L49.8857 51.8666C50.3095 51.4937 50.7332 51.1123 51.1231 50.7309L51.4112 51.036C51.0157 51.4315 50.6004 51.8157 50.1654 52.1886V52.1802ZM8.63821 49.9597C8.25684 49.5445 7.88396 49.1122 7.53648 48.6715L7.86699 48.4088C8.21446 48.8326 8.57889 49.2563 8.95178 49.6716L8.63821 49.9597ZM52.5638 49.8157L52.2502 49.5275C52.6316 49.1122 53.0045 48.68 53.352 48.2647L53.6825 48.5275C53.3604 48.9682 52.9875 49.3919 52.5977 49.8241L52.5638 49.8157ZM6.50254 47.3155C6.18049 46.8494 5.85843 46.3748 5.56181 45.9002L5.91777 45.6714C6.21439 46.146 6.52797 46.6121 6.85002 47.0698L6.50254 47.3155ZM54.7164 47.1884L54.3774 46.9342C54.6995 46.4935 55.0215 46.0274 55.3266 45.5528L55.6826 45.7816C55.4029 46.2731 55.0808 46.7393 54.7503 47.1969L54.7164 47.1884ZM4.71432 44.4256C4.44312 43.934 4.18039 43.4256 3.94309 42.9171L4.32448 42.7306C4.56177 43.2391 4.81601 43.7391 5.07873 44.2307L4.71432 44.4256ZM56.5639 44.3239L56.1995 44.1205C56.4707 43.6289 56.7419 43.1289 56.9792 42.6374L57.3606 42.8238C57.1572 43.3323 56.8775 43.8408 56.5894 44.3069L56.5639 44.3239ZM3.25663 41.3577C3.05323 40.8407 2.84983 40.2983 2.67185 39.7644L3.07018 39.6288C3.24815 40.1542 3.44308 40.6882 3.65495 41.1966L3.25663 41.3577ZM58.0725 41.2729L57.6826 41.1119C57.8945 40.5949 58.0979 40.0695 58.2844 39.544L58.6827 39.6881C58.5217 40.2305 58.3183 40.7644 58.0979 41.2814L58.0725 41.2729ZM2.13793 38.1372C1.98538 37.6033 1.84979 37.0439 1.72267 36.4846L2.13793 36.3998C2.25658 36.9422 2.39219 37.4931 2.54474 38.027L2.13793 38.1372ZM59.1827 38.0694L58.7674 37.9507C58.9285 37.4168 59.0725 36.8744 59.1997 36.332L59.6065 36.4253C59.5387 36.9846 59.3946 37.527 59.242 38.0779L59.1827 38.0694ZM1.40061 34.8235C1.31587 34.2641 1.23113 33.6963 1.1718 33.1285L1.59555 33.0777C1.65487 33.637 1.73114 34.1964 1.82436 34.7726L1.40061 34.8235ZM59.9455 34.7642L59.5302 34.6879C59.6234 34.137 59.6997 33.5777 59.759 32.9929L60.1828 33.0438C60.1828 33.6455 60.098 34.2133 60.0048 34.7726L59.9455 34.7642ZM1.0362 31.442C1.0362 30.8827 0.985352 30.3148 0.985352 29.747H1.4091C1.4091 30.312 1.42605 30.877 1.45995 31.442H1.0362ZM60.3607 31.3827H59.937C59.937 30.8318 59.9878 30.2725 59.9878 29.6877V29.5521H60.4116V29.6877C60.437 30.264 60.42 30.8318 60.3861 31.3911L60.3607 31.3827ZM1.48537 28.069H1.06162C1.06162 27.5096 1.1379 26.9333 1.19722 26.374L1.62097 26.4248C1.58707 26.9588 1.54469 27.5181 1.51079 28.0775L1.48537 28.069ZM59.9624 27.8825C59.9624 27.3401 59.8861 26.7808 59.8183 26.1875L60.2336 26.1367C60.3014 26.713 60.3522 27.2808 60.3861 27.8317L59.9624 27.8825ZM1.87521 24.7299L1.45146 24.6621C1.54469 24.1197 1.64641 23.5518 1.76506 22.9671L2.18032 23.0603C2.07015 23.6451 1.9515 24.2044 1.86675 24.7383L1.87521 24.7299ZM59.5726 24.5604C59.4709 24.0095 59.3607 23.4586 59.2336 22.9162L59.6488 22.8145C59.776 23.3654 59.8946 23.9247 59.9878 24.5095L59.5726 24.5604ZM2.57864 21.4585L2.17184 21.3484C2.31591 20.806 2.48542 20.2551 2.6634 19.7212L3.07018 19.8568C2.91763 20.3907 2.71423 20.9331 2.57016 21.467L2.57864 21.4585ZM58.8013 21.2975C58.6488 20.7721 58.4708 20.2381 58.2759 19.7042L58.6742 19.5601C58.8691 20.1025 59.0471 20.6449 59.2081 21.1789L58.8013 21.2975ZM3.64647 18.2804L3.24817 18.1279C3.46004 17.6024 3.68886 17.077 3.92615 16.5685L4.30754 16.7465C4.06176 17.255 3.84141 17.7804 3.63801 18.2889L3.64647 18.2804ZM57.6657 18.1533C57.4454 17.6448 57.208 17.1363 56.9623 16.6363L57.3436 16.4414C57.5979 16.9499 57.8352 17.4668 58.0555 17.9838L57.6657 18.1533ZM5.06179 15.2464L4.68889 15.0515C4.96009 14.5515 5.23976 14.0599 5.53639 13.5768L5.9008 13.7972C5.5957 14.2803 5.31603 14.7718 5.05331 15.2549L5.06179 15.2464ZM56.1741 15.1617C55.9029 14.6786 55.6148 14.1955 55.3266 13.7294L55.6826 13.5006C55.9961 13.9752 56.2928 14.4667 56.5301 14.9498L56.1741 15.1617ZM6.81611 12.4073L6.47712 12.1615C6.79916 11.7039 7.13815 11.2462 7.49409 10.8055L7.82463 11.0683C7.46868 11.509 7.1551 11.9581 6.80763 12.4158L6.81611 12.4073ZM54.352 12.348C54.0215 11.8988 53.674 11.5005 53.3265 11.0259L53.6486 10.7632C54.0045 11.1954 54.3605 11.6107 54.691 12.1022L54.352 12.348ZM8.90942 9.8055L8.59585 9.51735C8.96875 9.10207 9.36705 8.66986 9.77385 8.29696L10.0705 8.59358C9.69758 8.98343 9.27383 9.39022 8.90093 9.8055H8.90942ZM52.2248 9.8055C51.8519 9.40718 51.4536 8.958 51.0552 8.61053L51.3434 8.30543C51.7502 8.70375 52.1909 9.15293 52.5383 9.52582L52.2248 9.8055ZM11.2994 7.50031L11.0282 7.17827C11.4519 6.81385 11.8756 6.44942 12.3502 6.11043L12.6045 6.44942C12.1468 6.75452 11.7146 7.10199 11.2909 7.46641L11.2994 7.50031ZM49.8179 7.50031C49.3942 7.13589 48.9704 6.77994 48.5128 6.44095L48.767 6.11043C49.2162 6.44942 49.6654 6.81385 50.0891 7.17827L49.8179 7.50031ZM13.935 5.44091L13.6977 5.08496C14.1639 4.77139 14.6554 4.47477 15.1385 4.18662L15.3504 4.55103C14.9012 4.83071 14.4181 5.12733 13.935 5.44091ZM47.1144 5.44091C46.6568 5.13581 46.1822 4.83071 45.7076 4.54256L45.9279 4.17814C46.411 4.46629 46.8941 4.77986 47.3602 5.09344L47.1144 5.44091ZM16.825 3.7883L16.6301 3.40692C17.1301 3.15267 17.6471 2.9069 18.164 2.68655L18.3335 3.06792C17.8505 3.26284 17.325 3.50015 16.8504 3.7544L16.825 3.7883ZM44.2414 3.72049C43.7499 3.45777 43.2414 3.212 42.7413 2.98317L42.9108 2.6018C43.4278 2.83063 43.9448 3.08487 44.4448 3.3476L44.2414 3.72049ZM19.8844 2.44925L19.7404 2.05093C20.2658 1.84753 20.8082 1.66956 21.3506 1.50006L21.4777 1.90686C20.9692 2.03398 20.4353 2.22043 19.9099 2.41535L19.8844 2.44925ZM41.1904 2.33908C40.6735 2.13568 40.1395 1.94923 39.6056 1.77973L39.7327 1.37293C40.2751 1.55091 40.8175 1.73736 41.343 1.94076L41.1904 2.33908ZM23.088 1.49159L22.9863 1.08479C23.5202 0.940716 24.0795 0.813595 24.6813 0.703421L24.766 1.11869C24.1982 1.15259 23.6473 1.27971 23.1134 1.41531L23.088 1.49159ZM37.9954 1.35599C37.4615 1.22039 36.9106 1.09326 36.3682 0.983089L36.4445 0.567819C37.0038 0.677993 37.5632 0.805119 38.1395 0.940718L37.9954 1.35599ZM26.3762 0.83054L26.3085 0.406793C26.8678 0.322044 27.4356 0.254244 28.0034 0.19492L28.0458 0.610196C27.4949 0.593246 26.9525 0.669519 26.4017 0.754268L26.3762 0.83054ZM34.7156 0.703421C34.1647 0.627147 33.6054 0.567816 33.0206 0.525442V0.101695C33.5884 0.101695 34.1562 0.21187 34.7156 0.288145V0.703421ZM29.7069 0.474594V0.0508475C30.0205 0.0508475 30.334 0.0508496 30.6561 0H31.4104V0.423747H30.673L29.7069 0.474594Z" fill="#263238"/>
        <path d="M30.8842 98.0037H30.4604V96.546H30.8842V98.0037ZM30.8842 94.8511H30.4604V93.1561H30.8842V94.8511ZM30.8842 91.4611H30.4604V89.7661H30.8842V91.4611ZM30.8842 88.0711H30.4604V86.3761H30.8842V88.0711ZM30.8842 84.6811H30.4604V82.9862H30.8842V84.6811ZM30.8842 81.2912H30.4604V79.5962H30.8842V81.2912ZM30.8842 77.9012H30.4604V76.2062H30.8842V77.9012ZM30.8842 74.5112H30.4604V72.8162H30.8842V74.5112ZM30.8842 71.1213H30.4604V69.4263H30.8842V71.1213ZM30.8842 67.7313H30.4604V66.0363H30.8842V67.7313ZM30.8842 64.3413H30.4604V62.6463H30.8842V64.3413ZM30.8842 60.9513H30.4604V59.2563H30.8842V60.9513Z" fill="#263238"/>
        <path d="M29.3843 97.9451C29.3826 98.1985 29.4562 98.4468 29.5958 98.6583C29.7354 98.8699 29.9347 99.0352 30.1684 99.1334C30.4021 99.2316 30.6596 99.2581 30.9084 99.2097C31.1572 99.1613 31.386 99.0401 31.5659 98.8614C31.7457 98.6828 31.8684 98.4548 31.9185 98.2063C31.9686 97.9579 31.9437 97.7001 31.8471 97.4658C31.7505 97.2315 31.5865 97.0311 31.3759 96.8901C31.1652 96.7491 30.9175 96.6738 30.664 96.6738C30.3261 96.6738 30.0018 96.8075 29.7621 97.0457C29.5223 97.2838 29.3865 97.6071 29.3843 97.9451Z" fill="#263238"/>
    </g>

</svg>
